<svg width="1736" height="1721" viewBox="0 0 1736 1721" fill="none" xmlns="http://www.w3.org/2000/svg">
<path d="M1711.27 461.85C1711.27 206.79 1504.48 0 1249.41 0H87.39L305.99 329.71L511.35 554.61H981.42L776.73 329.71H806.79H1249.4C1322.37 329.71 1381.54 388.88 1381.54 461.85C1381.54 534.82 1322.37 593.99 1249.4 593.99H806.79H543.93H305.98V594.49L76.6 1426.83L0 1462.62H66.71H105.03H489L637.51 923.7H1249.4C1504.48 923.71 1711.27 716.96 1711.27 461.85Z" fill="#22242E"/>
<path d="M1735.81 1383.68L1344.76 953.96C1313.91 959.94 1282 963.1 1249.41 963.1H884.44L1162.78 1267.94H774.5L1692.69 1720.97L1380.94 1383.68H1735.81Z" fill="#22242E"/>
</svg>
